HIERARCHY
ROOT pelvis
{
	OFFSET 0.003123 -0.351407 0.012037
	CHANNELS 6 Xposition Yposition Zposition Zrotation Yrotation Xrotation 
	JOINT left_hip
	{
		OFFSET 0.058189 -0.092763 -0.026001
		CHANNELS 3 Zrotation Yrotation Xrotation
		JOINT left_knee
		{
			OFFSET 0.054695 -0.378753 -0.009396
			CHANNELS 3 Zrotation Yrotation Xrotation
			JOINT left_ankle
			{
				OFFSET -0.043453 -0.403059 -0.031876
				CHANNELS 3 Zrotation Yrotation Xrotation
				JOINT left_foot
				{
					OFFSET 0.047257 -0.057997 0.118216
					CHANNELS 3 Zrotation Yrotation Xrotation
					End Site
					{
						OFFSET 0.000000 0.000000 0.000000
					}
				}
			}
		}
	}
	JOINT right_hip
	{
		OFFSET -0.063267 -0.103908 -0.021250
		CHANNELS 3 Zrotation Yrotation Xrotation
		JOINT right_knee
		{
			OFFSET -0.044210 -0.362380 -0.016824
			CHANNELS 3 Zrotation Yrotation Xrotation
			JOINT right_ankle
			{
				OFFSET 0.015417 -0.410728 -0.020192
				CHANNELS 3 Zrotation Yrotation Xrotation
				JOINT right_foot
				{
					OFFSET -0.038812 -0.058328 0.119049
					CHANNELS 3 Zrotation Yrotation Xrotation
					End Site
					{
						OFFSET 0.000000 0.000000 0.000000
					}
				}
			}
		}
	}
	JOINT spine_1
	{
		OFFSET -0.002763 0.109891 -0.027618
		CHANNELS 3 Zrotation Yrotation Xrotation
		JOINT spine_2
		{
			OFFSET 0.009448 0.131853 -0.005940
			CHANNELS 3 Zrotation Yrotation Xrotation
			JOINT spine_3
			{
				OFFSET -0.011330 0.052235 0.028447
				CHANNELS 3 Zrotation Yrotation Xrotation
				JOINT neck
				{
					OFFSET -0.012164 0.165167 -0.031615
					CHANNELS 3 Zrotation Yrotation Xrotation
					JOINT head
					{
						OFFSET 0.024783 0.160452 0.020737
						CHANNELS 3 Zrotation Yrotation Xrotation
						End Site
						{
							OFFSET 0.000000 0.000000 0.000000
						}
					}
				}
				JOINT left_collar
				{
					OFFSET 0.046364 0.084944 -0.007220
					CHANNELS 3 Zrotation Yrotation Xrotation
					JOINT left_shoulder
					{
						OFFSET 0.119239 0.057728 -0.015461
						CHANNELS 3 Zrotation Yrotation Xrotation
						JOINT left_elbow
						{
							OFFSET 0.254123 -0.072151 -0.042459
							CHANNELS 3 Zrotation Yrotation Xrotation
							JOINT left_wrist
							{
								OFFSET 0.251987 0.023221 -0.002472
								CHANNELS 3 Zrotation Yrotation Xrotation
								JOINT left_index_1
								{
									OFFSET 0.101902 -0.008688 0.019351
									CHANNELS 3 Zrotation Yrotation Xrotation
									JOINT left_index_2
									{
										OFFSET 0.030149 -0.011154 0.001151
										CHANNELS 3 Zrotation Yrotation Xrotation
										JOINT left_index_3
										{
											OFFSET 0.006504 -0.021577 -0.002433
											CHANNELS 3 Zrotation Yrotation Xrotation
											End Site
											{
												OFFSET 0.000000 0.000000 0.000000
											}
										}
									}
								}
								JOINT left_middle_1
								{
									OFFSET 0.109398 -0.006328 -0.003981
									CHANNELS 3 Zrotation Yrotation Xrotation
									JOINT left_middle_2
									{
										OFFSET 0.026472 -0.015218 -0.004641
										CHANNELS 3 Zrotation Yrotation Xrotation
										JOINT left_middle_3
										{
											OFFSET 0.005022 -0.023347 -0.001911
											CHANNELS 3 Zrotation Yrotation Xrotation
											End Site
											{
												OFFSET 0.000000 0.000000 0.000000
											}
										}
									}
								}
								JOINT left_pinky_1
								{
									OFFSET 0.084047 -0.014539 -0.043750
									CHANNELS 3 Zrotation Yrotation Xrotation
									JOINT left_pinky_2
									{
										OFFSET 0.012124 -0.014448 -0.005375
										CHANNELS 3 Zrotation Yrotation Xrotation
										JOINT left_pinky_3
										{
											OFFSET 0.003798 -0.018853 0.000167
											CHANNELS 3 Zrotation Yrotation Xrotation
											End Site
											{
												OFFSET 0.000000 0.000000 0.000000
											}
										}
									}
								}
								JOINT left_ring_1
								{
									OFFSET 0.097444 -0.009268 -0.027345
									CHANNELS 3 Zrotation Yrotation Xrotation
									JOINT left_ring_2
									{
										OFFSET 0.023561 -0.016057 -0.001895
										CHANNELS 3 Zrotation Yrotation Xrotation
										JOINT left_ring_3
										{
											OFFSET 0.004257 -0.023548 0.000814
											CHANNELS 3 Zrotation Yrotation Xrotation
											End Site
											{
												OFFSET 0.000000 0.000000 0.000000
											}
										}
									}
								}
								JOINT left_thumb_1
								{
									OFFSET 0.040636 -0.017977 0.025611
									CHANNELS 3 Zrotation Yrotation Xrotation
									JOINT left_thumb_2
									{
										OFFSET 0.021637 -0.017639 0.011623
										CHANNELS 3 Zrotation Yrotation Xrotation
										JOINT left_thumb_3
										{
											OFFSET 0.024002 -0.008356 0.006548
											CHANNELS 3 Zrotation Yrotation Xrotation
											End Site
											{
												OFFSET 0.000000 0.000000 0.000000
											}
										}
									}
								}
							}
						}
					}
				}
				JOINT right_collar
				{
					OFFSET -0.047695 0.084339 -0.013400
					CHANNELS 3 Zrotation Yrotation Xrotation
					JOINT right_shoulder
					{
						OFFSET -0.102578 0.053524 -0.012669
						CHANNELS 3 Zrotation Yrotation Xrotation
						JOINT right_elbow
						{
							OFFSET -0.271150 -0.036492 -0.026467
							CHANNELS 3 Zrotation Yrotation Xrotation
							JOINT right_wrist
							{
								OFFSET -0.249267 -0.004533 -0.015325
								CHANNELS 3 Zrotation Yrotation Xrotation
								JOINT right_index_1
								{
									OFFSET -0.099881 -0.011783 0.019600
									CHANNELS 3 Zrotation Yrotation Xrotation
									JOINT right_index_2
									{
										OFFSET -0.030148 -0.011154 0.001151
										CHANNELS 3 Zrotation Yrotation Xrotation
										JOINT right_index_3
										{
											OFFSET -0.006505 -0.021577 -0.002432
											CHANNELS 3 Zrotation Yrotation Xrotation
											End Site
											{
												OFFSET 0.000000 0.000000 0.000000
											}
										}
									}
								}
								JOINT right_middle_1
								{
									OFFSET -0.107376 -0.009422 -0.003734
									CHANNELS 3 Zrotation Yrotation Xrotation
									JOINT right_middle_2
									{
										OFFSET -0.026472 -0.015218 -0.004641
										CHANNELS 3 Zrotation Yrotation Xrotation
										JOINT right_middle_3
										{
											OFFSET -0.005022 -0.023347 -0.001911
											CHANNELS 3 Zrotation Yrotation Xrotation
											End Site
											{
												OFFSET 0.000000 0.000000 0.000000
											}
										}
									}
								}
								JOINT right_pinky_1
								{
									OFFSET -0.082027 -0.017634 -0.043503
									CHANNELS 3 Zrotation Yrotation Xrotation
									JOINT right_pinky_2
									{
										OFFSET -0.012123 -0.014448 -0.005374
										CHANNELS 3 Zrotation Yrotation Xrotation
										JOINT right_pinky_3
										{
											OFFSET -0.003798 -0.018852 0.000167
											CHANNELS 3 Zrotation Yrotation Xrotation
											End Site
											{
												OFFSET 0.000000 0.000000 0.000000
											}
										}
									}
								}
								JOINT right_ring_1
								{
									OFFSET -0.095423 -0.012362 -0.027099
									CHANNELS 3 Zrotation Yrotation Xrotation
									JOINT right_ring_2
									{
										OFFSET -0.023561 -0.016057 -0.001895
										CHANNELS 3 Zrotation Yrotation Xrotation
										JOINT right_ring_3
										{
											OFFSET -0.004257 -0.023548 0.000816
											CHANNELS 3 Zrotation Yrotation Xrotation
											End Site
											{
												OFFSET 0.000000 0.000000 0.000000
											}
										}
									}
								}
								JOINT right_thumb_1
								{
									OFFSET -0.038613 -0.021074 0.025861
									CHANNELS 3 Zrotation Yrotation Xrotation
									JOINT right_thumb_2
									{
										OFFSET -0.021636 -0.017639 0.011623
										CHANNELS 3 Zrotation Yrotation Xrotation
										JOINT right_thumb_3
										{
											OFFSET -0.024004 -0.008353 0.006547
											CHANNELS 3 Zrotation Yrotation Xrotation
											End Site
											{
												OFFSET 0.000000 0.000000 0.000000
											}
										}
									}
								}
							}
						}
					}
				}
			}
		}
	}
}
MOTION
Frames: 5
Frame Time: 0.050000
-0.003860 0.925387 0.005867 -0.423541 -1.202366 -11.340149 5.032373 1.090960 10.702780 -4.438876 0.104247 3.950492 1.377038 -1.784967 -5.538496 0.000000 0.000000 0.000000 -5.439607 -0.604121 10.549100 3.952218 -0.174812 6.865716 -3.121548 -1.166490 -8.021635 0.000000 0.000000 0.000000 -0.691998 -0.880503 12.858671 -8.587502 0.478231 -14.236113 9.373802 0.754039 25.143697 0.971741 0.277506 -2.844113 0.000000 0.000000 0.000000 -5.922154 -4.035979 1.604615 -48.494519 -14.195296 -6.855869 -25.120406 -64.343168 23.756350 0.563134 -4.116495 12.554069 -23.049255 11.628960 2.153052 -20.362412 15.561550 18.383326 0.000000 0.000000 0.000000 -21.942395 -0.716596 -4.520671 -40.232887 10.149762 6.031715 0.000000 0.000000 0.000000 19.909189 -25.942250 -25.839727 -52.520466 -15.334295 -22.005681 0.000000 0.000000 0.000000 -15.143082 -11.839920 -6.863598 -57.817694 -1.980444 -4.298399 0.000000 0.000000 0.000000 11.355810 30.701847 30.678534 2.167248 -18.966471 -7.151696 0.000000 0.000000 0.000000 -0.957923 2.864487 1.537805 56.670353 15.705370 -1.000535 23.609537 33.605825 5.539640 2.459785 -5.258424 23.584074 16.594117 -3.750926 0.668787 -0.546654 -7.692000 17.116230 0.000000 0.000000 0.000000 8.405535 5.093561 -4.187899 38.899695 -11.218274 3.159580 0.000000 0.000000 0.000000 -30.109651 22.950343 -13.971152 58.408472 41.607009 -46.264030 0.000000 0.000000 0.000000 1.970375 8.928857 -5.055287 65.851658 3.309610 -10.943255 0.000000 0.000000 0.000000 -11.161552 -32.897174 33.478035 0.846140 19.462929 -6.075640 0.000000 0.000000 0.000000 
-0.004096 0.925306 0.003227 -0.455042 -1.296352 -11.109912 5.077961 1.022614 10.070890 -4.505138 0.088381 4.317021 1.449387 -1.581435 -5.508745 0.000000 0.000000 0.000000 -5.362767 -0.528338 9.413379 3.978528 -0.170139 8.069896 -3.221421 -1.260881 -8.200691 0.000000 0.000000 0.000000 -1.314814 -0.878991 13.280687 -8.016631 0.177985 -14.442558 9.610064 0.410647 25.060231 0.426780 0.395646 -3.091849 0.000000 0.000000 0.000000 -6.229984 -3.512654 1.323748 -48.550289 -14.612013 -6.744408 -29.904316 -63.810958 26.757284 -0.095198 -3.105117 15.702093 -26.484571 13.633952 1.880087 -26.261367 21.362879 21.280286 0.000000 0.000000 0.000000 -26.478318 1.757072 -4.900291 -44.262761 13.977082 9.365001 0.000000 0.000000 0.000000 14.572837 -29.535876 -26.577803 -66.716343 -20.373900 -19.472135 0.000000 0.000000 0.000000 -20.270945 -11.198702 -6.452580 -65.724824 1.237034 0.051669 0.000000 0.000000 0.000000 9.694481 33.299298 34.213621 9.465796 -20.384491 -11.380517 0.000000 0.000000 0.000000 -1.282348 3.398443 1.832589 56.159672 15.730833 -1.107948 23.610353 34.728429 5.767035 2.097511 -5.495049 25.011699 15.546962 -2.445797 0.303132 -3.292445 -5.547295 14.740315 0.000000 0.000000 0.000000 8.960805 5.450239 -4.489753 32.161811 -9.519842 3.097670 0.000000 0.000000 0.000000 -29.188790 22.993368 -14.780618 59.850907 32.423355 -38.557495 0.000000 0.000000 0.000000 3.120752 8.749015 -4.978869 56.664108 0.843567 -10.374294 0.000000 0.000000 0.000000 -9.983865 -31.432638 31.546429 3.132798 16.898527 -4.130044 0.000000 0.000000 0.000000 
-0.003153 0.925306 0.004547 -0.783840 -0.089792 -9.902154 5.697816 0.862013 9.482330 -5.016784 0.223815 2.860559 0.854626 -2.729572 -5.183525 0.000000 0.000000 0.000000 -5.162914 -0.477642 8.149083 4.472605 -0.247025 8.395591 -3.576533 -2.513802 -7.877456 0.000000 0.000000 0.000000 -1.106656 -0.801599 11.934020 -7.749839 -0.037835 -15.024633 9.328638 -0.765416 25.793028 0.953971 0.220606 -2.533468 0.000000 0.000000 0.000000 -6.629575 -4.191850 1.708032 -48.408412 -14.408809 -6.768627 -30.799678 -64.319150 27.710018 -1.113224 -3.559324 16.383460 -26.580685 10.241033 1.196092 -19.424413 17.110183 19.813902 0.000000 0.000000 0.000000 -24.698758 0.839024 -4.903469 -37.773062 13.188713 10.867956 0.000000 0.000000 0.000000 16.063047 -26.407906 -21.747675 -68.859181 -19.790518 -19.675424 0.000000 0.000000 0.000000 -19.110537 -8.223932 -5.477970 -59.850542 1.968033 0.186200 0.000000 0.000000 0.000000 3.913504 30.217360 29.774563 4.439594 -16.463899 -7.434000 0.000000 0.000000 0.000000 -0.809612 4.045978 2.139161 55.606905 14.886198 -1.546004 22.794394 35.629619 5.731519 3.080209 -5.055690 24.666662 15.760468 -3.212291 0.516901 -3.437321 -5.370126 14.460614 0.000000 0.000000 0.000000 9.033573 4.158857 -3.864502 28.959166 -8.909694 3.792619 0.000000 0.000000 0.000000 -27.972609 19.688349 -10.550934 65.062617 22.530002 -30.802678 0.000000 0.000000 0.000000 3.089459 6.556515 -3.807645 56.447973 -0.133749 -8.965847 0.000000 0.000000 0.000000 -8.760664 -30.727922 30.564675 1.935848 16.128822 -4.459329 0.000000 0.000000 0.000000 
-0.002918 0.925306 0.004547 -0.804172 -0.694207 -10.832498 5.595545 1.028766 10.842206 -4.763334 0.235576 2.425742 1.009496 -2.417227 -5.266430 0.000000 0.000000 0.000000 -5.528248 -0.502608 9.083652 4.917835 -0.293901 8.429156 -3.305076 -1.751478 -7.915629 0.000000 0.000000 0.000000 -0.781704 -0.905407 13.334150 -7.821947 -0.126219 -15.354841 9.521931 0.193081 25.618589 0.938734 0.253942 -2.682506 0.000000 0.000000 0.000000 -6.297725 -4.615735 1.918341 -48.657919 -15.089474 -6.739025 -33.431469 -64.317528 29.407505 -1.304133 -2.753663 18.519734 -23.922215 8.955016 1.148886 -13.402230 15.151248 20.522008 0.000000 0.000000 0.000000 -20.666580 -0.143006 -4.461734 -35.756682 12.896385 10.321696 0.000000 0.000000 0.000000 20.509063 -26.780113 -21.561763 -70.166975 -24.548409 -22.592372 0.000000 0.000000 0.000000 -14.436176 -9.639690 -5.778996 -61.740868 3.423549 0.972342 0.000000 0.000000 0.000000 6.176473 30.691338 30.355375 2.654312 -17.248496 -6.930454 0.000000 0.000000 0.000000 -0.904298 3.050482 1.631732 56.077187 14.602496 -1.506541 23.207416 36.166376 6.003064 2.147733 -5.806001 25.466297 16.593695 -1.882304 0.029878 -1.479853 -6.372008 14.872072 0.000000 0.000000 0.000000 9.292432 5.139593 -4.416790 28.024814 -7.773275 2.123556 0.000000 0.000000 0.000000 -26.605255 19.604110 -10.338466 63.078840 26.271602 -33.267882 0.000000 0.000000 0.000000 2.891867 7.571310 -4.368077 56.081126 0.184829 -9.604853 0.000000 0.000000 0.000000 -9.829493 -31.099786 31.257446 2.510495 18.426719 -4.923811 0.000000 0.000000 0.000000 
-0.001622 0.925467 0.005867 -0.523860 -0.606710 -10.392847 4.871165 1.018726 10.099992 -4.255126 0.140616 3.004374 1.155129 -2.221685 -5.416814 0.000000 0.000000 0.000000 -5.530524 -0.448224 8.363209 4.284093 -0.214549 8.992228 -3.443743 -2.005740 -8.041673 0.000000 0.000000 0.000000 -0.486632 -0.820387 11.851778 -7.870714 0.085097 -14.676533 9.128088 0.001389 26.241669 0.929706 0.175892 -2.199645 0.000000 0.000000 0.000000 -6.007841 -5.089820 2.213232 -48.821242 -15.865584 -6.641662 -32.954547 -64.261423 29.118446 -1.839655 -3.295977 18.791178 -26.417598 9.994077 0.931294 -9.640427 15.926771 24.643766 0.000000 0.000000 0.000000 -23.243823 1.383410 -4.607694 -34.129204 13.303952 12.167407 0.000000 0.000000 0.000000 19.067377 -27.306017 -21.627977 -72.916672 -22.412350 -19.559018 0.000000 0.000000 0.000000 -17.575311 -8.776066 -5.621789 -61.060269 6.727870 6.292307 0.000000 0.000000 0.000000 7.199970 31.026057 30.856315 1.438634 -17.824487 -6.556592 0.000000 0.000000 0.000000 -0.575016 2.582393 1.374863 55.905616 15.006707 -1.423848 22.035371 35.746404 5.585388 3.888498 -5.653467 24.575738 15.759458 -2.365906 0.268393 -1.842672 -5.526831 13.467457 0.000000 0.000000 0.000000 8.133916 4.762348 -4.037970 29.704229 -7.465847 0.645220 0.000000 0.000000 0.000000 -28.121164 20.238887 -11.219307 60.728416 26.264767 -35.681827 0.000000 0.000000 0.000000 3.640923 6.776184 -3.973587 54.519520 0.552677 -10.260346 0.000000 0.000000 0.000000 -8.553971 -30.045617 29.963030 4.194850 16.182733 -3.438350 0.000000 0.000000 0.000000 
